<svg xmlns="http://www.w3.org/2000/svg" width="260" height="72" viewBox="0 0 260 72" role="img" aria-labelledby="title desc">
  <title id="title">LaptopShop logo</title>
  <desc id="desc">LaptopShop wordmark with laptop shopping icon</desc>
  <defs>
    <linearGradient id="screen" x1="14" x2="54" y1="16" y2="48" gradientUnits="userSpaceOnUse">
      <stop stop-color="#0f172a"/>
      <stop offset="1" stop-color="#1e293b"/>
    </linearGradient>
  </defs>

  <rect width="260" height="72" rx="14" fill="none"/>

  <g transform="translate(8 9)">
    <rect x="5" y="7" width="54" height="36" rx="7" fill="url(#screen)"/>
    <rect x="11" y="13" width="42" height="23" rx="4" fill="#fff7ed"/>
    <path d="M2 45h60l-5 8H7l-5-8Z" fill="#0f172a"/>
    <path d="M20 45h24l-2 3H22l-2-3Z" fill="#fb923c"/>

    <g transform="translate(34 17)">
      <path d="M8 8h21l-3 18H11L8 8Z" fill="#f97316"/>
      <path d="M13 8a6 6 0 0 1 12 0" fill="none" stroke="#0f172a" stroke-width="3" stroke-linecap="round"/>
      <circle cx="14" cy="14" r="1.6" fill="#fff7ed"/>
      <circle cx="23" cy="14" r="1.6" fill="#fff7ed"/>
    </g>
  </g>

  <g fill="#0f172a" font-family="Inter, ui-sans-serif, system-ui, -apple-system, BlinkMacSystemFont, Segoe UI, sans-serif">
    <text x="82" y="35" font-size="28" font-weight="900" letter-spacing="0">Laptop</text>
    <text x="178" y="35" font-size="28" font-weight="900" letter-spacing="0" fill="#f97316">Shop</text>
    <text x="84" y="53" font-size="11" font-weight="700" letter-spacing="1.4" fill="#64748b">LAPTOP CHINH HANG</text>
  </g>
</svg>
